{#- _shell/icons.svg — inline <symbol> icon sprite, ported from
    docs/redesign/shell.jsx's `I` map (stroke-based, 24×24 viewBox).
    Include once near the top of <body>; reference with
    <svg class="icon" width="16" height="16"><use href="#i-home"></use></svg>.
    The .sprite-host class (static/style.css) hides this host with no inline
    style, keeping it CSP-clean. aria-hidden — decorative. -#}
<svg class="sprite-host" aria-hidden="true" focusable="false" xmlns="http://www.w3.org/2000/svg">
  <defs>
    {#- shared stroke styling lives on each symbol so <use> inherits it -#}
  </defs>
  <symbol id="i-home" viewBox="0 0 24 24" fill="none" stroke="currentColor" stroke-width="1.6" stroke-linecap="round" stroke-linejoin="round"><path d="M3 11l9-8 9 8v10a1 1 0 0 1-1 1h-5v-7h-6v7H4a1 1 0 0 1-1-1V11z"/></symbol>
  <symbol id="i-plan" viewBox="0 0 24 24" fill="none" stroke="currentColor" stroke-width="1.6" stroke-linecap="round" stroke-linejoin="round"><path d="M4 6h16M4 12h16M4 18h10"/></symbol>
  <symbol id="i-workout" viewBox="0 0 24 24" fill="none" stroke="currentColor" stroke-width="1.6" stroke-linecap="round" stroke-linejoin="round"><path d="M2 12h2m16 0h2M6 8v8m12-8v8M9 6v12m6-12v12"/></symbol>
  <symbol id="i-log" viewBox="0 0 24 24" fill="none" stroke="currentColor" stroke-width="1.6" stroke-linecap="round" stroke-linejoin="round"><path d="M5 4h11l3 3v13a1 1 0 0 1-1 1H5a1 1 0 0 1-1-1V5a1 1 0 0 1 1-1zM9 11h6M9 15h6M9 7h4"/></symbol>
  <symbol id="i-library" viewBox="0 0 24 24" fill="none" stroke="currentColor" stroke-width="1.6" stroke-linecap="round" stroke-linejoin="round"><path d="M4 5h6v14H4zM10 5h4v14h-4zM14 6l4 1-3 13-4-1z"/></symbol>
  <symbol id="i-gear" viewBox="0 0 24 24" fill="none" stroke="currentColor" stroke-width="1.6" stroke-linecap="round" stroke-linejoin="round"><path d="M12 8a4 4 0 1 0 0 8 4 4 0 0 0 0-8zm9 4l-2-1 1-2-2-2-2 1-1-2h-3l-1 2-2-1-2 2 1 2-2 1v3l2 1-1 2 2 2 2-1 1 2h3l1-2 2 1 2-2-1-2 2-1z"/></symbol>
  <symbol id="i-link" viewBox="0 0 24 24" fill="none" stroke="currentColor" stroke-width="1.6" stroke-linecap="round" stroke-linejoin="round"><path d="M10 14a4 4 0 0 0 5.66 0l3-3a4 4 0 0 0-5.66-5.66l-1 1M14 10a4 4 0 0 0-5.66 0l-3 3a4 4 0 0 0 5.66 5.66l1-1"/></symbol>
  <symbol id="i-athlete" viewBox="0 0 24 24" fill="none" stroke="currentColor" stroke-width="1.6" stroke-linecap="round" stroke-linejoin="round"><path d="M12 12a4 4 0 1 0 0-8 4 4 0 0 0 0 8zM4 20a8 8 0 0 1 16 0"/></symbol>
  <symbol id="i-insights" viewBox="0 0 24 24" fill="none" stroke="currentColor" stroke-width="1.6" stroke-linecap="round" stroke-linejoin="round"><path d="M4 19V5M4 19h16M8 15l3-5 3 3 4-7"/></symbol>
  <symbol id="i-bell" viewBox="0 0 24 24" fill="none" stroke="currentColor" stroke-width="1.6" stroke-linecap="round" stroke-linejoin="round"><path d="M6 18V11a6 6 0 1 1 12 0v7M3 18h18M10 21h4"/></symbol>
  <symbol id="i-search" viewBox="0 0 24 24" fill="none" stroke="currentColor" stroke-width="1.6" stroke-linecap="round" stroke-linejoin="round"><path d="M11 4a7 7 0 1 1 0 14 7 7 0 0 1 0-14zm9 16l-4-4"/></symbol>
  <symbol id="i-plus" viewBox="0 0 24 24" fill="none" stroke="currentColor" stroke-width="1.6" stroke-linecap="round" stroke-linejoin="round"><path d="M12 5v14M5 12h14"/></symbol>
  <symbol id="i-check" viewBox="0 0 24 24" fill="none" stroke="currentColor" stroke-width="1.6" stroke-linecap="round" stroke-linejoin="round"><path d="M5 13l4 4 10-10"/></symbol>
  <symbol id="i-x" viewBox="0 0 24 24" fill="none" stroke="currentColor" stroke-width="1.6" stroke-linecap="round" stroke-linejoin="round"><path d="M6 6l12 12M18 6L6 18"/></symbol>
  <symbol id="i-arrow" viewBox="0 0 24 24" fill="none" stroke="currentColor" stroke-width="1.6" stroke-linecap="round" stroke-linejoin="round"><path d="M5 12h14m-5-5l5 5-5 5"/></symbol>
  <symbol id="i-download" viewBox="0 0 24 24" fill="none" stroke="currentColor" stroke-width="1.6" stroke-linecap="round" stroke-linejoin="round"><path d="M12 4v12m-5-5l5 5 5-5M4 20h16"/></symbol>
  <symbol id="i-chevR" viewBox="0 0 24 24" fill="none" stroke="currentColor" stroke-width="1.6" stroke-linecap="round" stroke-linejoin="round"><path d="M9 6l6 6-6 6"/></symbol>
  <symbol id="i-chevL" viewBox="0 0 24 24" fill="none" stroke="currentColor" stroke-width="1.6" stroke-linecap="round" stroke-linejoin="round"><path d="M15 6l-6 6 6 6"/></symbol>
  <symbol id="i-chevD" viewBox="0 0 24 24" fill="none" stroke="currentColor" stroke-width="1.6" stroke-linecap="round" stroke-linejoin="round"><path d="M6 9l6 6 6-6"/></symbol>
  <symbol id="i-clock" viewBox="0 0 24 24" fill="none" stroke="currentColor" stroke-width="1.6" stroke-linecap="round" stroke-linejoin="round"><path d="M12 4a8 8 0 1 1 0 16 8 8 0 0 1 0-16zM12 8v4l3 2"/></symbol>
  <symbol id="i-flame" viewBox="0 0 24 24" fill="none" stroke="currentColor" stroke-width="1.6" stroke-linecap="round" stroke-linejoin="round"><path d="M12 3c1 4 5 5 5 10a5 5 0 0 1-10 0c0-2 1-3 2-4-1 3 1 4 2 4 0-3-1-5 1-10z"/></symbol>
  <symbol id="i-heart" viewBox="0 0 24 24" fill="none" stroke="currentColor" stroke-width="1.6" stroke-linecap="round" stroke-linejoin="round"><path d="M12 20s-7-4-7-10a4 4 0 0 1 7-3 4 4 0 0 1 7 3c0 6-7 10-7 10z"/></symbol>
  <symbol id="i-pin" viewBox="0 0 24 24" fill="none" stroke="currentColor" stroke-width="1.6" stroke-linecap="round" stroke-linejoin="round"><path d="M12 21s-7-7-7-12a7 7 0 0 1 14 0c0 5-7 12-7 12zM12 11a2 2 0 1 0 0-4 2 2 0 0 0 0 4z"/></symbol>
  <symbol id="i-cloud" viewBox="0 0 24 24" fill="none" stroke="currentColor" stroke-width="1.6" stroke-linecap="round" stroke-linejoin="round"><path d="M7 18a5 5 0 1 1 1-9.9A6 6 0 0 1 19 11a4 4 0 0 1-1 7z"/></symbol>
  <symbol id="i-weight" viewBox="0 0 24 24" fill="none" stroke="currentColor" stroke-width="1.6" stroke-linecap="round" stroke-linejoin="round"><path d="M5 7h14l-1 13H6L5 7zM9 7V5a3 3 0 0 1 6 0v2"/></symbol>
  <symbol id="i-shoe" viewBox="0 0 24 24" fill="none" stroke="currentColor" stroke-width="1.6" stroke-linecap="round" stroke-linejoin="round"><path d="M3 14c0-3 2-3 4-5l3-4 3 1 1 4 6 2v4c0 1-1 2-2 2H5a2 2 0 0 1-2-2v-2z"/></symbol>
  <symbol id="i-menu" viewBox="0 0 24 24" fill="none" stroke="currentColor" stroke-width="1.6" stroke-linecap="round" stroke-linejoin="round"><path d="M4 6h16M4 12h16M4 18h16"/></symbol>
  <symbol id="i-more" viewBox="0 0 24 24" fill="none" stroke="currentColor" stroke-width="1.6" stroke-linecap="round" stroke-linejoin="round"><path d="M5 12h.01M12 12h.01M19 12h.01"/></symbol>
  <symbol id="i-bolt" viewBox="0 0 24 24" fill="none" stroke="currentColor" stroke-width="1.6" stroke-linecap="round" stroke-linejoin="round"><path d="M13 3L4 14h7l-1 7 9-11h-7z"/></symbol>
  <symbol id="i-upload" viewBox="0 0 24 24" fill="none" stroke="currentColor" stroke-width="1.6" stroke-linecap="round" stroke-linejoin="round"><path d="M12 16V4m-5 5l5-5 5 5M4 20h16"/></symbol>
  <symbol id="i-body" viewBox="0 0 24 24" fill="none" stroke="currentColor" stroke-width="1.6" stroke-linecap="round" stroke-linejoin="round"><path d="M12 6a2 2 0 1 0 0-4 2 2 0 0 0 0 4zm-3 3l3-1 3 1 2 7-2 1-1-4v9h-2v-5h-2v5h-2v-9l-1 4-2-1z"/></symbol>
  <symbol id="i-pulse" viewBox="0 0 24 24" fill="none" stroke="currentColor" stroke-width="1.6" stroke-linecap="round" stroke-linejoin="round"><path d="M3 12h4l2-6 4 12 2-6h6"/></symbol>
  <symbol id="i-bandage" viewBox="0 0 24 24" fill="none" stroke="currentColor" stroke-width="1.6" stroke-linecap="round" stroke-linejoin="round"><path d="M5 14L14 5a3.5 3.5 0 0 1 5 5l-9 9a3.5 3.5 0 0 1-5-5zM9 9l6 6"/></symbol>
  <symbol id="i-sun" viewBox="0 0 24 24" fill="none" stroke="currentColor" stroke-width="1.6" stroke-linecap="round" stroke-linejoin="round"><path d="M12 5V3m0 18v-2m7-7h2M3 12h2m13.5-6.5l1.4-1.4M4.1 19.9l1.4-1.4m13 0l1.4 1.4M4.1 4.1l1.4 1.4M12 8a4 4 0 1 0 0 8 4 4 0 0 0 0-8z"/></symbol>
</svg>
